<svg width="100" height="42" viewBox="0 0 100 42" fill="none" xmlns="http://www.w3.org/2000/svg">
<path d="M36.5 17.5682C36.7739 18.8341 38.9528 32.8261 41.009 32.1422C43.0652 31.4582 43.7845 23.3839 45.5356 20.0859C48.7643 14.0051 50.5467 39.9389 54.7027 26.8697C60.2878 9.30675 71.9947 16.9755 71.9947 16.9755" stroke="white" stroke-width="4.19874"/>
<path d="M4.5136 25.195C4.5136 29.163 7.2912 31.0478 9.9944 31.0478C12.7224 31.0478 15.5 29.163 15.5 25.195C15.5 21.227 12.7224 19.3422 9.9944 19.3422C7.2912 19.3422 4.5136 21.227 4.5136 25.195ZM0.9672 25.2198C0.9672 19.5406 5.2328 16.0438 9.9944 16.0438C14.7808 16.0438 19.0464 19.5406 19.0464 25.2198C19.0464 30.8742 14.7808 34.371 9.9944 34.371C5.2328 34.371 0.9672 30.8742 0.9672 25.2198ZM25.0639 26.9806V33.999H21.7655V21.7974H24.9647V23.3102C25.7087 22.0454 27.1719 21.475 28.4863 21.475C31.5119 21.475 32.9007 23.6326 32.9007 26.311V33.999H29.6023V26.8814C29.6023 25.5174 28.9327 24.451 27.3455 24.451C25.9071 24.451 25.0639 25.567 25.0639 26.9806ZM60.0137 30.6758C60.0137 28.4934 61.6257 27.2782 63.6593 26.9806L66.6601 26.5342C67.3545 26.435 67.5777 26.0878 67.5777 25.6662C67.5777 24.7982 66.9081 24.079 65.5193 24.079C64.0809 24.079 63.2873 24.9966 63.1881 26.063L60.2617 25.443C60.4601 23.5334 62.2209 21.4254 65.4945 21.4254C69.3633 21.4254 70.8017 23.6078 70.8017 26.063V32.0646C70.8017 32.7094 70.8761 33.5774 70.9505 33.999H67.9249C67.8505 33.6766 67.8009 33.007 67.8009 32.5358C67.1809 33.503 66.0153 34.3462 64.2049 34.3462C61.6009 34.3462 60.0137 32.5854 60.0137 30.6758ZM64.8993 31.891C66.2881 31.891 67.5777 31.2214 67.5777 29.0638V28.5182L64.8249 28.9398C63.9817 29.0638 63.3121 29.535 63.3121 30.4774C63.3121 31.1966 63.8329 31.891 64.8993 31.891ZM85.4157 21.7974L80.6789 33.999H77.3805L72.3957 21.7974H76.0165L79.0421 29.9814L81.9437 21.7974H85.4157ZM89.4648 26.5094H94.9208C94.8712 25.2942 94.0776 24.1038 92.1928 24.1038C90.4816 24.1038 89.5392 25.3934 89.4648 26.5094ZM95.2432 29.6838L97.996 30.5022C97.376 32.6102 95.4416 34.371 92.4408 34.371C89.0928 34.371 86.1416 31.9654 86.1416 27.8486C86.1416 23.955 89.0184 21.4254 92.1432 21.4254C95.9128 21.4254 98.1696 23.831 98.1696 27.7494C98.1696 28.2206 98.12 28.7166 98.12 28.7662H89.3904C89.4648 30.3782 90.8288 31.5438 92.4656 31.5438C94.0032 31.5438 94.8464 30.775 95.2432 29.6838Z" fill="white"/>
</svg>
